<svg width="27" height="27" viewBox="0 0 27 27" fill="none" xmlns="http://www.w3.org/2000/svg">
<g clip-path="url(#clip0_6973_1405)">
<path d="M27 2.89001V24.0834C27 25.6789 25.7042 26.9734 24.1071 26.9734H18.9663V16.3045H22.6185L23.1429 12.2344H18.9663V9.63337C18.9663 8.45328 19.2917 7.65251 20.9853 7.65251H23.1429V4.01591C22.7692 3.96774 21.4915 3.85335 19.9969 3.85335C16.8871 3.85335 14.7536 5.74991 14.7536 9.23599V12.2404H11.0893V16.3105H14.7596V26.9734H2.89286C1.29576 26.9734 0 25.6789 0 24.0834V2.89001C0 1.29448 1.29576 0 2.89286 0H24.1071C25.7042 0 27 1.29448 27 2.89001Z" fill="#FFFDF5"/>
</g>
<defs>
<clipPath id="clip0_6973_1405">
<rect width="27" height="27" fill="white"/>
</clipPath>
</defs>
</svg>
