<svg width="42" height="27" viewBox="0 0 42 27" fill="none" xmlns="http://www.w3.org/2000/svg">
<g clip-path="url(#clip0_6973_1456)">
<path d="M27.6465 23.9702C27.6465 23.5272 27.9308 23.1631 28.3998 23.1631C28.8415 23.1631 29.1531 23.5029 29.1531 23.9702C29.1531 24.4131 28.8415 24.7772 28.3998 24.7772C27.9339 24.7499 27.6465 24.4101 27.6465 23.9702Z" fill="#FFFDF5"/>
<path d="M21.1297 23.1357C21.4686 23.1357 21.7015 23.345 21.7529 23.7334H20.4551C20.5065 23.3967 20.7394 23.1357 21.1297 23.1357Z" fill="#FFFDF5"/>
<path d="M32.6602 23.9702C32.6602 23.5272 32.9446 23.1631 33.4135 23.1631C33.8552 23.1631 34.1668 23.5029 34.1668 23.9702C34.1668 24.4131 33.8552 24.7772 33.4135 24.7772C32.9446 24.7499 32.6602 24.4101 32.6602 23.9702Z" fill="#FFFDF5"/>
<path d="M12.4043 23.9702C12.4043 23.5272 12.6887 23.1631 13.1576 23.1631C13.5993 23.1631 13.9109 23.5029 13.9109 23.9702C13.9109 24.4131 13.5993 24.7772 13.1576 24.7772C12.6887 24.7499 12.4043 24.4101 12.4043 23.9702Z" fill="#FFFDF5"/>
<path fill-rule="evenodd" clip-rule="evenodd" d="M39.7604 0H2.23954C1.0032 0 0 1.02671 0 2.29328V24.7067C0 25.9735 1.00271 27 2.23954 27H39.7604C40.9969 27 42 25.9732 42 24.7067V2.29328C42 1.02649 40.9973 0 39.7604 0ZM11.401 25.2711V23.7054C11.401 23.1066 11.0368 22.7144 10.4115 22.7144C10.0989 22.7144 9.759 22.8177 9.52526 23.1582C9.34316 22.8725 9.08214 22.7144 8.6906 22.7144C8.42958 22.7144 8.16856 22.7934 7.9622 23.0792V22.7661H7.41585V25.2711H7.9622V23.8879C7.9622 23.444 8.19589 23.2343 8.56009 23.2343C8.92429 23.2343 9.10644 23.4683 9.10644 23.8879V25.2711H9.65275V23.8879C9.65275 23.444 9.91377 23.2343 10.2507 23.2343C10.6149 23.2343 10.797 23.4683 10.797 23.8879V25.2711H11.401ZM19.5017 22.7661H18.6185V22.0091H18.0722V22.7661H17.5775V23.2616H18.0722V24.4108C18.0722 24.9854 18.3059 25.3228 18.9311 25.3228C19.1648 25.3228 19.4258 25.2437 19.6079 25.1404L19.4501 24.6692C19.2923 24.7726 19.1102 24.7999 18.9796 24.7999C18.7186 24.7999 18.6154 24.6418 18.6154 24.3834V23.2616H19.5017V22.7661ZM24.1424 22.7114C23.8298 22.7114 23.6203 22.8694 23.4898 23.0762V22.763H22.9435V25.2681H23.4898V23.8575C23.4898 23.441 23.6719 23.2039 24.0119 23.2039C24.1151 23.2039 24.2456 23.2312 24.3518 23.2555L24.5096 22.7326C24.4004 22.7114 24.2456 22.7114 24.1424 22.7114ZM17.1343 22.9728C16.8733 22.7904 16.5091 22.7114 16.1175 22.7114C15.4923 22.7114 15.0765 23.0245 15.0765 23.52C15.0765 23.9365 15.3891 24.1736 15.9354 24.2497L16.1964 24.277C16.4818 24.3287 16.6396 24.4077 16.6396 24.5384C16.6396 24.7208 16.4301 24.8516 16.0659 24.8516C15.7017 24.8516 15.4134 24.7208 15.2313 24.5902L14.9703 25.0066C15.2556 25.2164 15.6471 25.3198 16.0386 25.3198C16.7671 25.3198 17.1859 24.9793 17.1859 24.5111C17.1859 24.0673 16.846 23.8331 16.327 23.7541L16.0659 23.7268C15.8323 23.6994 15.6502 23.6477 15.6502 23.4926C15.6502 23.3102 15.8322 23.2069 16.1206 23.2069C16.4332 23.2069 16.7458 23.3376 16.9036 23.4167L17.1343 22.9728ZM31.6695 22.7114C31.3569 22.7114 31 23 31.0169 23.0762V22.763H30.4706V25.2681H31.0169V23.8575C31.0169 23.441 31.199 23.2039 31.539 23.2039C31.6422 23.2039 31.7726 23.2312 31.8789 23.2555L32.0368 22.7387C31.9305 22.7114 31.7757 22.7114 31.6695 22.7114ZM24.6887 24.0186C24.6887 24.7756 25.2107 25.3228 26.0181 25.3228C26.3823 25.3228 26.6433 25.2437 26.9044 25.037L26.6433 24.5932C26.4339 24.7512 26.2275 24.8273 25.9908 24.8273C25.5477 24.8273 25.235 24.5141 25.235 24.0186C25.235 23.5474 25.5477 23.2343 25.9908 23.2099C26.2245 23.2099 26.4339 23.289 26.6433 23.444L26.9044 23.0001C26.6433 22.7904 26.3823 22.7144 26.0181 22.7144C25.2107 22.7114 24.6887 23.2616 24.6887 24.0186ZM29.7422 22.7661H29.1959V23.0792C29.0138 22.8451 28.7527 22.7144 28.4128 22.7144C27.7087 22.7144 27.1624 23.2616 27.1624 24.0186C27.1624 24.7756 27.7087 25.3228 28.4128 25.3228C28.777 25.3228 29.038 25.1921 29.1959 24.958V25.2711H29.7422V22.7661ZM21.1983 22.7114C20.4699 22.7114 19.9478 23.2343 19.9478 24.0155C19.9478 24.7999 20.4699 25.3198 21.2257 25.3198C21.5899 25.3198 21.9541 25.2164 22.2424 24.9793L21.9814 24.5871C21.772 24.7452 21.5109 24.8485 21.2529 24.8485C20.9131 24.8485 20.5761 24.6905 20.4972 24.2497H22.3456V24.0399C22.3699 23.2343 21.8995 22.7114 21.1983 22.7114ZM34.7714 21.775H34.225V23.0792C34.0429 22.8451 33.7819 22.7144 33.442 22.7144C32.7378 22.7144 32.1915 23.2616 32.1915 24.0186C32.1915 24.7756 32.7378 25.3228 33.442 25.3228C33.8062 25.3228 34.0672 25.1921 34.225 24.958V25.2711H34.7714V21.775ZM14.4756 22.7661H13.9292V23.0792C13.7471 22.8451 13.4861 22.7144 13.1462 22.7144C12.442 22.7144 11.8957 23.2616 11.8957 24.0186C11.8957 24.7756 12.442 25.3228 13.1462 25.3228C13.5104 25.3228 13.7714 25.1921 13.9292 24.958V25.2711H14.4756V22.7661ZM15.2868 20.4778C10.1211 20.4778 5.92232 16.2788 5.92232 11.0979C5.92232 5.93722 10.1211 1.73147 15.2868 1.73825C17.1259 1.73825 18.9312 2.28682 20.4592 3.30269C15.564 7.31878 15.5302 14.8972 20.4592 18.9133C18.9312 19.9224 17.1259 20.4778 15.2868 20.4778ZM21.0678 18.4663C25.8346 14.7415 25.8142 7.48132 21.0678 3.73614C16.3213 7.48132 16.301 14.7483 21.0678 18.4663ZM26.8487 1.73147C32.0144 1.73147 36.2132 5.93722 36.2132 11.0979C36.2132 16.2788 32.0144 20.4778 26.8487 20.471C25.0232 20.471 23.2043 19.9224 21.6763 18.9066C26.6256 14.9108 26.5512 7.31201 21.6763 3.29592C23.2043 2.28682 25.0096 1.73147 26.8487 1.73147Z" fill="#FFFDF5"/>
</g>
<defs>
<clipPath id="clip0_6973_1456">
<rect width="42" height="27" fill="white"/>
</clipPath>
</defs>
</svg>
