<svg width="42" height="27" viewBox="0 0 42 27" fill="none" xmlns="http://www.w3.org/2000/svg">
<g clip-path="url(#clip0_6973_1462)">
<path d="M33.5187 12.8998C33.3012 12.7056 33.0281 12.6084 32.6996 12.6084C32.265 12.6084 31.9006 12.7586 31.6073 13.0589C31.3137 13.3592 31.1669 13.7275 31.1669 14.163C31.1669 14.4931 31.2726 14.7523 31.484 14.9404C31.6955 15.129 31.9713 15.223 32.312 15.223C32.7349 15.223 33.096 15.0758 33.3954 14.7814C33.6949 14.4871 33.8446 14.1277 33.8447 13.7038C33.8446 13.3622 33.7358 13.0942 33.5187 12.8998ZM13.5062 12.8998C13.2888 12.7056 13.0157 12.6084 12.687 12.6084C12.2523 12.6084 11.8882 12.7586 11.5948 13.0589C11.3011 13.3592 11.1543 13.7275 11.1543 14.163C11.1543 14.4931 11.257 14.7523 11.4627 14.9404C11.668 15.129 11.9411 15.223 12.2819 15.223C12.7161 15.223 13.0833 15.0791 13.3829 14.7901C13.6824 14.5019 13.8321 14.1396 13.8321 13.7038C13.8321 13.3622 13.7234 13.0942 13.5062 12.8998Z" fill="#FFFDF5"/>
<path d="M39.0385 0H2.96154C1.32855 0 0 1.32968 0 2.96407V24.0359C0 25.6703 1.32855 27 2.96154 27H39.0385C40.6713 27 42 25.6703 42 24.0359V2.96407C42 1.32968 40.6713 0 39.0385 0ZM6.50338 13.8879C6.46816 13.8879 6.38583 13.8821 6.25676 13.8704C6.12742 13.8587 6.01585 13.8528 5.922 13.8528C5.82788 13.8528 5.72821 13.8616 5.62251 13.879C5.51681 13.8966 5.42866 13.9351 5.35828 13.9938C5.2878 14.0527 5.2465 14.1291 5.23492 14.2231L4.91788 16.1624C4.89419 16.3859 4.76512 16.4974 4.53029 16.4974H3.19146C3.12098 16.4974 3.06218 16.4681 3.01533 16.4092C2.96827 16.3505 2.95061 16.2858 2.96251 16.2152L4.10755 9.02156C4.13097 8.79834 4.25428 8.68662 4.47742 8.68662H7.2961C8.02415 8.68662 8.61425 8.84258 9.06656 9.15375C9.5186 9.46541 9.74486 9.9679 9.74486 10.6613C9.74486 11.6724 9.45689 12.4628 8.8816 13.0328C8.30604 13.603 7.51332 13.8879 6.50338 13.8879ZM15.9105 11.5605L15.1883 16.1623C15.1531 16.3858 15.0237 16.4973 14.8007 16.4973H13.5852C13.4325 16.4973 13.3562 16.4035 13.3562 16.2152C13.3562 16.1095 13.3796 15.986 13.4267 15.8451C13.2153 16.0802 12.9334 16.2682 12.5811 16.4093C12.2288 16.5502 11.888 16.6208 11.5594 16.6208C10.8781 16.6208 10.3351 16.4154 9.92988 16.0037C9.52468 15.5925 9.32206 15.0401 9.32206 14.3464C9.32206 13.4885 9.61848 12.7419 10.2117 12.1072C10.8047 11.4724 11.5241 11.155 12.3697 11.155C13.1683 11.155 13.7262 11.3903 14.0433 11.8603C14.0786 11.4724 14.1782 11.2784 14.3428 11.2784H15.6817C15.752 11.2784 15.8107 11.3079 15.8577 11.3666C15.9045 11.4254 15.9221 11.4899 15.9105 11.5605ZM18.2184 18.3133H16.8619C16.7092 18.3133 16.6329 18.237 16.6329 18.0841C16.6329 17.9902 17.1143 17.285 18.0774 15.9683C18.0656 15.9216 17.9277 15.51 17.6634 14.7343C17.4172 14.0113 17.1706 13.2883 16.9236 12.5655C16.6947 11.8955 16.5801 11.5489 16.5801 11.5252C16.5801 11.4666 16.6035 11.4106 16.6506 11.3578C16.6973 11.3049 16.7501 11.2783 16.809 11.2783H18.1304C18.3299 11.2783 18.459 11.3726 18.5179 11.5605L19.2931 14.2053L21.1604 11.4546C21.2424 11.3374 21.3481 11.2783 21.4775 11.2783H22.834C22.8925 11.2783 22.9455 11.3049 22.9926 11.3578C23.0392 11.4106 23.0629 11.4665 23.0629 11.5252C23.0629 11.5843 23.0512 11.6253 23.0278 11.6486L18.5356 18.1372C18.4531 18.2547 18.3475 18.3133 18.2184 18.3133ZM26.5156 13.8879C26.4806 13.8879 26.3981 13.8821 26.269 13.8704C26.1397 13.8587 26.0282 13.8528 25.9344 13.8528C25.8402 13.8528 25.7405 13.8616 25.6348 13.879C25.529 13.8966 25.441 13.9351 25.3706 13.9938C25.3 14.0527 25.2589 14.1291 25.2473 14.2231L24.9301 16.2682C24.883 16.4211 24.7891 16.4974 24.6482 16.4974H23.2038C23.1332 16.4974 23.0743 16.4681 23.0276 16.4092C22.9805 16.3505 22.9629 16.2858 22.9749 16.2152L24.1198 9.02156C24.1432 8.79834 24.2724 8.68662 24.5074 8.68662H27.3085C28.0366 8.68662 28.6267 8.84258 29.0789 9.15375C29.531 9.46541 29.7572 9.9679 29.7571 10.6613C29.7571 11.6724 29.4693 12.4628 28.8939 13.0328C28.3182 13.603 27.5257 13.8879 26.5156 13.8879ZM35.923 11.5605L35.2006 16.1623C35.1655 16.3858 35.0361 16.4973 34.8133 16.4973H33.5976C33.4447 16.4973 33.3686 16.4035 33.3686 16.2152C33.3686 16.1685 33.3801 16.0978 33.4038 16.0036C33.4272 15.9096 33.4391 15.8568 33.4391 15.8451C33.2391 16.0802 32.9634 16.2682 32.611 16.4093C32.2587 16.5502 31.9122 16.6208 31.5717 16.6208C30.8904 16.6208 30.3473 16.4154 29.942 16.0037C29.5369 15.5925 29.3344 15.0401 29.3344 14.3464C29.3344 13.4885 29.6308 12.7419 30.224 12.1072C30.8169 11.4724 31.5363 11.155 32.3819 11.155C33.1924 11.155 33.7499 11.3903 34.0556 11.8603C34.0908 11.4724 34.1904 11.2784 34.3549 11.2784H35.6939C35.7643 11.2784 35.8229 11.3079 35.87 11.3666C35.9169 11.4254 35.9346 11.4899 35.923 11.5605ZM39.0412 8.95096L37.8961 16.1624C37.8723 16.3859 37.749 16.4974 37.5261 16.4974H36.3633C36.2929 16.4974 36.2339 16.471 36.1872 16.4181C36.1401 16.3652 36.1166 16.3096 36.1166 16.2506L36.1342 16.2154L37.2794 8.88068C37.3027 8.75134 37.3789 8.68667 37.5084 8.68667H38.8119C38.9645 8.68667 39.041 8.76896 39.0411 8.9335L39.0412 8.95096Z" fill="#FFFDF5"/>
<path d="M27.4501 10.5324C27.3092 10.4088 27.1622 10.3353 27.0097 10.3116C26.8568 10.2881 26.6513 10.2764 26.393 10.2764H26.076C25.9466 10.2764 25.8703 10.3412 25.847 10.4706L25.5475 12.361L26.1113 12.3433C26.628 12.3433 27.0155 12.255 27.274 12.0784C27.5322 11.9016 27.6615 11.566 27.6615 11.0713C27.6614 10.8358 27.5911 10.6561 27.4501 10.5324ZM7.40268 10.4795C7.19128 10.3443 6.85049 10.2764 6.38095 10.2764H6.04608C5.91685 10.2764 5.84055 10.3412 5.81712 10.4707L5.51758 12.361L6.09895 12.3434C6.55692 12.3434 6.90923 12.2788 7.1559 12.1491C7.40252 12.0195 7.55501 11.7487 7.61392 11.3364C7.68446 10.9008 7.61397 10.6151 7.40268 10.4795Z" fill="#FFFDF5"/>
</g>
<defs>
<clipPath id="clip0_6973_1462">
<rect width="42" height="27" fill="white"/>
</clipPath>
</defs>
</svg>
