<svg width="42" height="27" viewBox="0 0 42 27" fill="none" xmlns="http://www.w3.org/2000/svg">
<g clip-path="url(#clip0_6973_1453)">
<path d="M35.2263 15.1101L34.3311 10.9141L32.8281 15.1101H35.2263Z" fill="#FFFDF5"/>
<path fill-rule="evenodd" clip-rule="evenodd" d="M2.23954 0H39.7604C40.9973 0 42 1.02648 42 2.29329V24.7067C42 25.9733 40.9968 27 39.7604 27H2.23954C1.00271 27 0 25.9736 0 24.7067V2.29329C0 1.0267 1.0032 0 2.23954 0ZM21.6015 11.4598C21.6015 9.03477 23.8625 7.72224 26.3925 7.72224C28.0128 7.72224 29.1617 8.21834 29.1617 8.21834L28.6508 10.5818C28.6508 10.5818 27.5948 10.0467 26.3006 10.0467C25.1535 10.0467 24.6006 10.5516 24.6006 11.0125C24.6006 11.5301 25.2421 11.8708 26.0129 12.2802C27.1734 12.8965 28.6271 13.6685 28.6271 15.4343C28.6271 17.9008 26.4505 19.2778 23.6844 19.2778C21.8182 19.2778 20.4125 18.6562 20.4125 18.6562L20.9347 16.2091C20.9347 16.2091 22.1549 16.9449 23.7875 16.9449C24.9378 16.9449 25.6114 16.4183 25.6114 15.83C25.6114 15.2505 24.9215 14.8784 24.114 14.4428C22.9748 13.8282 21.6015 13.0873 21.6015 11.4598ZM3.1842 8.25737L3.24546 7.90062H8.07538C8.77282 7.90062 9.34262 8.3218 9.45514 9.06007L10.6818 15.5109L13.6877 7.90062H16.7174L12.0392 19.0938H9.00262L6.73737 10.3533C6.52945 9.54693 6.44156 9.28726 5.20721 8.84132C4.24857 8.45234 3.1842 8.25737 3.1842 8.25737ZM15.559 19.0938L17.9356 7.90062H20.8163L18.448 19.0938H15.559ZM32.7121 8.92629C32.983 8.27397 33.3521 7.90062 34.0487 7.90062H36.4839L38.816 19.0938H36.1427L35.7863 17.3992H32.0953L31.5091 19.0938H28.4795L32.7121 8.92629Z" fill="#FFFDF5"/>
</g>
<defs>
<clipPath id="clip0_6973_1453">
<rect width="42" height="27" fill="white"/>
</clipPath>
</defs>
</svg>
